<svg width="100" height="100" viewBox="0 0 100 100" fill="none" xmlns="http://www.w3.org/2000/svg">
<g clip-path="url(#clip0_1_19)">
<path d="M100 0H0V100H100V0Z" fill="#FFD700"/>
<path d="M33.175 32.8C36.3995 32.8 39.1545 33.2587 41.4524 34.1603L41.4573 34.1623C43.7609 35.0371 45.5434 36.2657 46.8284 37.8361V37.8371L46.8313 37.841C48.0312 39.2758 48.755 40.9623 49.0002 42.9152H44.1467C43.7242 41.7836 43.0788 40.7928 42.2073 39.9504C41.2738 38.9893 40.0511 38.2666 38.5608 37.7687H38.5618C37.0536 37.2346 35.2539 36.9748 33.175 36.9748C30.5131 36.9748 28.204 37.4033 26.2639 38.2795L26.261 38.2805C24.3531 39.1562 22.8791 40.4029 21.8616 42.0246C20.8448 43.6452 20.345 45.5399 20.345 47.6896C20.345 49.7703 20.7805 51.5998 21.6711 53.1584L21.6731 53.1623C22.573 54.7049 23.9498 55.8802 25.7707 56.6965L25.7737 56.6974C27.6276 57.5144 29.9521 57.9103 32.7248 57.9103C34.8664 57.9103 36.7682 57.6348 38.4211 57.0734L38.426 57.0715C40.0929 56.4849 41.5002 55.7067 42.636 54.7287L42.6418 54.7238C43.522 53.9414 44.2113 53.0834 44.7014 52.1496H45.9641C45.8968 52.6208 45.8261 53.1116 45.7532 53.6223C45.0428 55.7911 43.8608 57.5664 42.2121 58.9631L42.2092 58.965C39.8013 61.029 36.5823 62.0851 32.5002 62.0851C29.8386 62.0851 27.4406 61.7743 25.303 61.1594H25.302C23.1986 60.5455 21.3842 59.6283 19.8508 58.4133H19.8498C18.3537 57.2039 17.2034 55.7076 16.3957 53.9191C15.59 52.1349 15.1799 50.062 15.1799 47.6896C15.18 45.2903 15.6039 43.1899 16.4377 41.3771C17.3057 39.5256 18.5172 37.9658 20.0764 36.6945L20.0774 36.6955C21.6712 35.4204 23.5617 34.4583 25.7561 33.8146L25.76 33.8137C27.9862 33.14 30.4566 32.8 33.175 32.8ZM59.9954 33.3849L69.7727 56.6926L68.8215 58.9719L68.5315 59.6652H72.1047L71.8137 58.9719L70.8567 56.6916L80.595 33.3849H86.0227L73.7248 61.5002H66.9084L54.4807 33.3849H59.9954ZM50.0901 48.3254V61.5002H45.9231C45.9403 60.7124 45.9944 59.8308 46.092 58.8547L46.093 58.8537C46.2122 57.6318 46.3605 56.4097 46.5393 55.1877L46.5403 55.1857C46.6054 54.73 46.6676 54.2878 46.7288 53.8596C47.078 52.7735 47.3163 51.603 47.4426 50.3498L47.5227 49.5568L46.7737 49.8303L44.4329 50.6857L44.22 50.7629L44.1379 50.9758C44.1154 51.0344 44.089 51.0915 44.0647 51.1496H33.72V48.3254H50.0901ZM70.6008 58.6652H70.0325L70.3157 57.9865L70.6008 58.6652ZM46.3313 51.1496H46.0764L46.3469 51.05C46.3421 51.0833 46.3363 51.1164 46.3313 51.1496Z" fill="#0C0F1A" stroke="black"/>
</g>
<defs>
<clipPath id="clip0_1_19">
<rect width="100" height="100" fill="white"/>
</clipPath>
</defs>
</svg>
