<svg width="1200" height="630" viewBox="0 0 1200 630" fill="none" xmlns="http://www.w3.org/2000/svg">
<g clip-path="url(#clip0_2_16)">
<path d="M1200 0H0V630H1200V0Z" fill="#0052B4"/>
<path d="M179.28 155.84C170.64 155.84 163.013 154.56 156.4 152C149.893 149.333 144.827 145.44 141.2 140.32C137.573 135.2 135.76 129.013 135.76 121.76C135.76 114.613 137.52 108.427 141.04 103.2C144.56 97.9733 149.573 93.92 156.08 91.04C162.693 88.16 170.427 86.72 179.28 86.72C181.733 86.72 184.08 86.88 186.32 87.2C188.667 87.52 190.96 87.9466 193.2 88.48L233.36 88.64V104.32C227.92 104.427 222.373 103.787 216.72 102.4C211.173 100.907 206.267 99.3066 202 97.6L201.52 96.48C205.147 98.1866 208.56 100.32 211.76 102.88C214.96 105.333 217.52 108.213 219.44 111.52C221.467 114.72 222.48 118.453 222.48 122.72C222.48 129.653 220.72 135.627 217.2 140.64C213.68 145.547 208.667 149.333 202.16 152C195.76 154.56 188.133 155.84 179.28 155.84ZM206 200.8V196.96C206 192.053 204.4 188.64 201.2 186.72C198.107 184.8 193.84 183.84 188.4 183.84H163.6C158.8 183.84 154.747 183.467 151.44 182.72C148.24 181.973 145.68 180.907 143.76 179.52C141.84 178.133 140.453 176.48 139.6 174.56C138.747 172.747 138.32 170.773 138.32 168.64C138.32 164.373 139.707 161.173 142.48 159.04C145.253 156.8 148.987 155.307 153.68 154.56C158.373 153.813 163.547 153.653 169.2 154.08L179.28 155.84C172.56 156.053 167.547 156.64 164.24 157.6C161.04 158.453 159.44 160.213 159.44 162.88C159.44 164.48 160.08 165.76 161.36 166.72C162.64 167.573 164.453 168 166.8 168H192.88C200.027 168 206.107 168.747 211.12 170.24C216.24 171.84 220.133 174.453 222.8 178.08C225.467 181.813 226.8 186.88 226.8 193.28V200.8H206ZM179.28 140.8C183.867 140.8 187.867 140.053 191.28 138.56C194.8 137.067 197.52 134.933 199.44 132.16C201.36 129.28 202.32 125.867 202.32 121.92C202.32 117.867 201.36 114.4 199.44 111.52C197.52 108.64 194.853 106.453 191.44 104.96C188.027 103.36 183.973 102.56 179.28 102.56C174.693 102.56 170.64 103.36 167.12 104.96C163.6 106.453 160.88 108.64 158.96 111.52C157.04 114.4 156.08 117.867 156.08 121.92C156.08 125.867 157.04 129.28 158.96 132.16C160.88 134.933 163.547 137.067 166.96 138.56C170.48 140.053 174.587 140.8 179.28 140.8Z" fill="#F5F0E8"/>
<path d="M270.784 53.6V71.84H246.624V53.6H270.784ZM248.224 88.48H269.024V168H248.224V88.48Z" fill="#F5F0E8"/>
<path d="M336.636 169.92C326.61 169.92 317.756 168.32 310.076 165.12C302.503 161.92 296.583 157.28 292.316 151.2C288.05 145.013 285.916 137.44 285.916 128.48C285.916 119.52 288.05 111.947 292.316 105.76C296.583 99.4666 302.503 94.72 310.076 91.52C317.756 88.32 326.61 86.72 336.636 86.72C346.663 86.72 355.41 88.32 362.876 91.52C370.45 94.72 376.37 99.4666 380.636 105.76C384.903 111.947 387.036 119.52 387.036 128.48C387.036 137.44 384.903 145.013 380.636 151.2C376.37 157.28 370.45 161.92 362.876 165.12C355.41 168.32 346.663 169.92 336.636 169.92ZM336.636 153.92C342.183 153.92 347.143 152.96 351.516 151.04C355.996 149.013 359.516 146.133 362.076 142.4C364.636 138.56 365.916 133.92 365.916 128.48C365.916 123.04 364.636 118.4 362.076 114.56C359.516 110.613 356.05 107.627 351.676 105.6C347.303 103.573 342.29 102.56 336.636 102.56C331.09 102.56 326.076 103.573 321.596 105.6C317.116 107.627 313.543 110.56 310.876 114.4C308.316 118.24 307.036 122.933 307.036 128.48C307.036 133.92 308.316 138.56 310.876 142.4C313.436 146.133 316.956 149.013 321.436 151.04C325.916 152.96 330.983 153.92 336.636 153.92Z" fill="#F5F0E8"/>
<path d="M402.413 88.48H423.213V168H402.413V88.48ZM453.773 105.6C447.799 105.6 442.626 106.773 438.253 109.12C433.879 111.36 430.359 114.133 427.693 117.44C425.026 120.747 423.159 123.947 422.092 127.04L421.933 118.24C422.039 116.96 422.466 115.093 423.213 112.64C423.959 110.08 425.079 107.36 426.573 104.48C428.066 101.493 430.039 98.6666 432.493 96C434.946 93.2266 437.933 90.9866 441.453 89.28C444.973 87.5733 449.079 86.72 453.773 86.72V105.6Z" fill="#F5F0E8"/>
<path d="M506.311 155.84C497.671 155.84 490.045 154.56 483.431 152C476.925 149.333 471.858 145.44 468.231 140.32C464.605 135.2 462.791 129.013 462.791 121.76C462.791 114.613 464.551 108.427 468.071 103.2C471.591 97.9733 476.605 93.92 483.111 91.04C489.725 88.16 497.458 86.72 506.311 86.72C508.765 86.72 511.111 86.88 513.351 87.2C515.698 87.52 517.991 87.9466 520.231 88.48L560.391 88.64V104.32C554.951 104.427 549.405 103.787 543.751 102.4C538.205 100.907 533.298 99.3066 529.031 97.6L528.551 96.48C532.178 98.1866 535.591 100.32 538.791 102.88C541.991 105.333 544.551 108.213 546.471 111.52C548.498 114.72 549.511 118.453 549.511 122.72C549.511 129.653 547.751 135.627 544.231 140.64C540.711 145.547 535.698 149.333 529.191 152C522.791 154.56 515.165 155.84 506.311 155.84ZM533.031 200.8V196.96C533.031 192.053 531.431 188.64 528.231 186.72C525.138 184.8 520.871 183.84 515.431 183.84H490.631C485.831 183.84 481.778 183.467 478.471 182.72C475.271 181.973 472.711 180.907 470.791 179.52C468.871 178.133 467.485 176.48 466.631 174.56C465.778 172.747 465.351 170.773 465.351 168.64C465.351 164.373 466.738 161.173 469.511 159.04C472.285 156.8 476.018 155.307 480.711 154.56C485.405 153.813 490.578 153.653 496.231 154.08L506.311 155.84C499.591 156.053 494.578 156.64 491.271 157.6C488.071 158.453 486.471 160.213 486.471 162.88C486.471 164.48 487.111 165.76 488.391 166.72C489.671 167.573 491.485 168 493.831 168H519.911C527.058 168 533.138 168.747 538.151 170.24C543.271 171.84 547.165 174.453 549.831 178.08C552.498 181.813 553.831 186.88 553.831 193.28V200.8H533.031ZM506.311 140.8C510.898 140.8 514.898 140.053 518.311 138.56C521.831 137.067 524.551 134.933 526.471 132.16C528.391 129.28 529.351 125.867 529.351 121.92C529.351 117.867 528.391 114.4 526.471 111.52C524.551 108.64 521.885 106.453 518.471 104.96C515.058 103.36 511.005 102.56 506.311 102.56C501.725 102.56 497.671 103.36 494.151 104.96C490.631 106.453 487.911 108.64 485.991 111.52C484.071 114.4 483.111 117.867 483.111 121.92C483.111 125.867 484.071 129.28 485.991 132.16C487.911 134.933 490.578 137.067 493.991 138.56C497.511 140.053 501.618 140.8 506.311 140.8Z" fill="#F5F0E8"/>
<path d="M597.815 53.6V71.84H573.655V53.6H597.815ZM575.255 88.48H596.055V168H575.255V88.48Z" fill="#F5F0E8"/>
<path d="M663.668 169.92C653.641 169.92 644.788 168.32 637.108 165.12C629.534 161.92 623.614 157.28 619.348 151.2C615.081 145.013 612.948 137.44 612.948 128.48C612.948 119.52 615.081 111.947 619.348 105.76C623.614 99.4666 629.534 94.72 637.108 91.52C644.788 88.32 653.641 86.72 663.668 86.72C673.694 86.72 682.441 88.32 689.908 91.52C697.481 94.72 703.401 99.4666 707.668 105.76C711.934 111.947 714.068 119.52 714.068 128.48C714.068 137.44 711.934 145.013 707.668 151.2C703.401 157.28 697.481 161.92 689.908 165.12C682.441 168.32 673.694 169.92 663.668 169.92ZM663.668 153.92C669.214 153.92 674.174 152.96 678.547 151.04C683.027 149.013 686.547 146.133 689.107 142.4C691.667 138.56 692.948 133.92 692.948 128.48C692.948 123.04 691.667 118.4 689.107 114.56C686.547 110.613 683.081 107.627 678.708 105.6C674.334 103.573 669.321 102.56 663.668 102.56C658.121 102.56 653.108 103.573 648.628 105.6C644.148 107.627 640.574 110.56 637.908 114.4C635.348 118.24 634.068 122.933 634.068 128.48C634.068 133.92 635.348 138.56 637.908 142.4C640.468 146.133 643.988 149.013 648.468 151.04C652.948 152.96 658.014 153.92 663.668 153.92Z" fill="#F5F0E8"/>
<path d="M363.44 304.4H355.92L385.04 238.48H407.76L369.52 318H349.84L312.4 238.48H335.28L363.44 304.4Z" fill="#F5F0E8"/>
<path d="M455.039 319.76C447.145 319.76 439.945 318.053 433.439 314.64C427.039 311.12 421.919 306.267 418.079 300.08C414.345 293.787 412.479 286.533 412.479 278.32C412.479 269.893 414.399 262.587 418.239 256.4C422.079 250.213 427.252 245.413 433.759 242C440.372 238.48 447.839 236.72 456.159 236.72C465.332 236.72 472.692 238.587 478.239 242.32C483.892 245.947 487.999 250.907 490.559 257.2C493.119 263.493 494.399 270.533 494.399 278.32C494.399 283.013 493.652 287.813 492.159 292.72C490.665 297.52 488.372 302 485.279 306.16C482.185 310.213 478.132 313.52 473.119 316.08C468.105 318.533 462.079 319.76 455.039 319.76ZM461.759 303.76C468.052 303.76 473.492 302.693 478.079 300.56C482.665 298.427 486.185 295.44 488.639 291.6C491.092 287.76 492.319 283.333 492.319 278.32C492.319 272.88 491.039 268.293 488.479 264.56C486.025 260.72 482.505 257.84 477.919 255.92C473.439 253.893 468.052 252.88 461.759 252.88C452.905 252.88 446.025 255.227 441.119 259.92C436.212 264.507 433.759 270.64 433.759 278.32C433.759 283.44 434.932 287.92 437.279 291.76C439.625 295.493 442.879 298.427 447.039 300.56C451.305 302.693 456.212 303.76 461.759 303.76ZM492.319 238.48H513.119V318H493.759C493.759 318 493.599 316.987 493.279 314.96C493.065 312.827 492.852 310.16 492.639 306.96C492.425 303.76 492.319 300.613 492.319 297.52V238.48Z" fill="#F5F0E8"/>
<path d="M531.944 238.48H552.744V318H531.944V238.48ZM589.704 236.72C594.61 236.72 599.144 237.36 603.304 238.64C607.464 239.92 611.09 241.893 614.184 244.56C617.277 247.227 619.677 250.64 621.384 254.8C623.09 258.853 623.944 263.707 623.944 269.36V318H603.144V273.04C603.144 266.32 601.49 261.413 598.184 258.32C594.984 255.12 589.704 253.52 582.344 253.52C576.797 253.52 571.784 254.587 567.304 256.72C562.824 258.853 559.197 261.573 556.424 264.88C553.65 268.08 552.05 271.44 551.624 274.96L551.464 266.8C551.997 263.067 553.224 259.44 555.144 255.92C557.064 252.4 559.624 249.2 562.824 246.32C566.13 243.333 570.024 240.987 574.504 239.28C578.984 237.573 584.05 236.72 589.704 236.72Z" fill="#F5F0E8"/>
<path d="M666.721 203.6V221.84H642.561V203.6H666.721ZM644.161 238.48H664.961V318H644.161V238.48Z" fill="#F5F0E8"/>
<path d="M685.694 238.48H706.494V318H685.694V238.48ZM743.454 236.72C748.36 236.72 752.894 237.36 757.054 238.64C761.214 239.92 764.84 241.893 767.934 244.56C771.027 247.227 773.427 250.64 775.134 254.8C776.84 258.853 777.694 263.707 777.694 269.36V318H756.894V273.04C756.894 266.32 755.24 261.413 751.934 258.32C748.734 255.12 743.454 253.52 736.094 253.52C730.547 253.52 725.534 254.587 721.054 256.72C716.574 258.853 712.947 261.573 710.174 264.88C707.4 268.08 705.8 271.44 705.374 274.96L705.214 266.8C705.747 263.067 706.974 259.44 708.894 255.92C710.814 252.4 713.374 249.2 716.574 246.32C719.88 243.333 723.774 240.987 728.254 239.28C732.734 237.573 737.8 236.72 743.454 236.72Z" fill="#F5F0E8"/>
<path d="M820.471 203.6V221.84H796.311V203.6H820.471ZM797.911 238.48H818.711V318H797.911V238.48Z" fill="#F5F0E8"/>
<path d="M1140 480H480V570H1140V480Z" fill="#FFD700" stroke="#0C0F1A" stroke-width="8"/>
<path d="M629.12 531.816H621.504L620.416 536.616H616L621.344 514.216H629.28L634.624 536.616H630.208L629.12 531.816ZM622.4 527.784H628.192L625.6 516.328H625.024L622.4 527.784Z" fill="#0C0F1A"/>
<path d="M637.418 514.216H652.394V518.248H647.018V532.584H652.394V536.616H637.418V532.584H642.794V518.248H637.418V514.216Z" fill="#0C0F1A"/>
<path d="M687.133 525.416C687.133 525.843 687.048 526.248 686.877 526.632C686.728 526.995 686.515 527.315 686.237 527.592C685.96 527.848 685.629 528.061 685.245 528.232C684.883 528.381 684.499 528.456 684.093 528.456C683.667 528.456 683.272 528.381 682.909 528.232C682.547 528.061 682.227 527.848 681.949 527.592C681.672 527.315 681.448 526.995 681.277 526.632C681.128 526.248 681.053 525.843 681.053 525.416C681.053 524.989 681.128 524.595 681.277 524.232C681.448 523.848 681.672 523.528 681.949 523.272C682.227 522.995 682.547 522.781 682.909 522.632C683.272 522.461 683.667 522.376 684.093 522.376C684.499 522.376 684.883 522.461 685.245 522.632C685.629 522.781 685.96 522.995 686.237 523.272C686.515 523.528 686.728 523.848 686.877 524.232C687.048 524.595 687.133 524.989 687.133 525.416Z" fill="#0C0F1A"/>
<path d="M714.961 514.216H723.089C725.862 514.216 727.921 514.867 729.265 516.168C730.609 517.448 731.281 519.443 731.281 522.152V528.68C731.281 531.389 730.609 533.395 729.265 534.696C727.921 535.976 725.862 536.616 723.089 536.616H714.961V532.552H717.073V518.248H714.961V514.216ZM723.089 532.584C724.561 532.584 725.585 532.243 726.161 531.56C726.758 530.856 727.057 529.768 727.057 528.296V522.152C727.057 520.872 726.758 519.901 726.161 519.24C725.585 518.579 724.561 518.248 723.089 518.248H721.297V532.584H723.089Z" fill="#0C0F1A"/>
<path d="M745.85 534.312C745.424 535.315 744.827 536.029 744.059 536.456C743.291 536.861 742.394 537.064 741.37 537.064C740.41 537.064 739.504 536.883 738.65 536.52C737.818 536.157 737.082 535.624 736.442 534.92C735.802 534.216 735.291 533.363 734.907 532.36C734.544 531.357 734.363 530.216 734.363 528.936V528.424C734.363 527.165 734.544 526.035 734.907 525.032C735.269 524.029 735.76 523.176 736.379 522.472C736.997 521.768 737.712 521.235 738.522 520.872C739.354 520.488 740.24 520.296 741.178 520.296C742.309 520.296 743.216 520.488 743.898 520.872C744.602 521.256 745.157 521.853 745.562 522.664H746.139V520.744H750.171V531.816C750.171 532.456 750.458 532.776 751.035 532.776H751.643V536.616H748.891C748.165 536.616 747.568 536.403 747.098 535.976C746.65 535.549 746.426 534.995 746.426 534.312H745.85ZM742.267 533.224C743.44 533.224 744.379 532.84 745.083 532.072C745.787 531.283 746.139 530.216 746.139 528.872V528.488C746.139 527.144 745.787 526.088 745.083 525.32C744.379 524.531 743.44 524.136 742.267 524.136C741.093 524.136 740.155 524.531 739.451 525.32C738.747 526.088 738.395 527.144 738.395 528.488V528.872C738.395 530.216 738.747 531.283 739.451 532.072C740.155 532.84 741.093 533.224 742.267 533.224Z" fill="#0C0F1A"/>
<path d="M754.724 520.744H759.428V514.216H763.46V520.744H769.188V524.584H763.46V531.816C763.46 532.456 763.748 532.776 764.324 532.776H768.612V536.616H761.892C761.167 536.616 760.57 536.381 760.1 535.912C759.652 535.443 759.428 534.845 759.428 534.12V524.584H754.724V520.744Z" fill="#0C0F1A"/>
<path d="M785.038 534.312C784.611 535.315 784.014 536.029 783.246 536.456C782.478 536.861 781.582 537.064 780.558 537.064C779.598 537.064 778.691 536.883 777.838 536.52C777.006 536.157 776.27 535.624 775.63 534.92C774.99 534.216 774.478 533.363 774.094 532.36C773.731 531.357 773.55 530.216 773.55 528.936V528.424C773.55 527.165 773.731 526.035 774.094 525.032C774.457 524.029 774.947 523.176 775.566 522.472C776.185 521.768 776.899 521.235 777.71 520.872C778.542 520.488 779.427 520.296 780.366 520.296C781.497 520.296 782.403 520.488 783.086 520.872C783.79 521.256 784.345 521.853 784.75 522.664H785.326V520.744H789.358V531.816C789.358 532.456 789.646 532.776 790.222 532.776H790.83V536.616H788.078C787.353 536.616 786.755 536.403 786.286 535.976C785.838 535.549 785.614 534.995 785.614 534.312H785.038ZM781.454 533.224C782.627 533.224 783.566 532.84 784.27 532.072C784.974 531.283 785.326 530.216 785.326 528.872V528.488C785.326 527.144 784.974 526.088 784.27 525.32C783.566 524.531 782.627 524.136 781.454 524.136C780.281 524.136 779.342 524.531 778.638 525.32C777.934 526.088 777.582 527.144 777.582 528.488V528.872C777.582 530.216 777.934 531.283 778.638 532.072C779.342 532.84 780.281 533.224 781.454 533.224Z" fill="#0C0F1A"/>
<path d="M824.29 525.416C824.29 525.843 824.204 526.248 824.033 526.632C823.884 526.995 823.671 527.315 823.393 527.592C823.116 527.848 822.786 528.061 822.402 528.232C822.039 528.381 821.655 528.456 821.249 528.456C820.823 528.456 820.428 528.381 820.066 528.232C819.703 528.061 819.383 527.848 819.105 527.592C818.828 527.315 818.604 526.995 818.434 526.632C818.284 526.248 818.21 525.843 818.21 525.416C818.21 524.989 818.284 524.595 818.434 524.232C818.604 523.848 818.828 523.528 819.105 523.272C819.383 522.995 819.703 522.781 820.066 522.632C820.428 522.461 820.823 522.376 821.249 522.376C821.655 522.376 822.039 522.461 822.402 522.632C822.786 522.781 823.116 522.995 823.393 523.272C823.671 523.528 823.884 523.848 824.033 524.232C824.204 524.595 824.29 524.989 824.29 525.416Z" fill="#0C0F1A"/>
<path d="M857.173 528.168V536.616H852.949V514.216H861.717C862.869 514.216 863.872 514.408 864.725 514.792C865.578 515.155 866.282 515.645 866.837 516.264C867.413 516.861 867.84 517.555 868.117 518.344C868.416 519.112 868.565 519.901 868.565 520.712V521.48C868.565 522.312 868.416 523.133 868.117 523.944C867.84 524.733 867.413 525.448 866.837 526.088C866.282 526.707 865.578 527.208 864.725 527.592C863.872 527.976 862.869 528.168 861.717 528.168H857.173ZM857.173 524.136H861.301C862.24 524.136 862.976 523.88 863.509 523.368C864.064 522.856 864.341 522.195 864.341 521.384V521C864.341 520.189 864.064 519.528 863.509 519.016C862.976 518.504 862.24 518.248 861.301 518.248H857.173V524.136Z" fill="#0C0F1A"/>
<path d="M888.287 528.872C888.287 530.195 888.063 531.368 887.615 532.392C887.167 533.395 886.559 534.248 885.791 534.952C885.023 535.635 884.137 536.157 883.135 536.52C882.153 536.883 881.119 537.064 880.031 537.064C878.943 537.064 877.897 536.883 876.895 536.52C875.913 536.157 875.039 535.635 874.271 534.952C873.503 534.248 872.895 533.395 872.447 532.392C871.999 531.368 871.775 530.195 871.775 528.872V528.488C871.775 527.187 871.999 526.035 872.447 525.032C872.895 524.008 873.503 523.144 874.271 522.44C875.039 521.736 875.913 521.203 876.895 520.84C877.897 520.477 878.943 520.296 880.031 520.296C881.119 520.296 882.153 520.477 883.135 520.84C884.137 521.203 885.023 521.736 885.791 522.44C886.559 523.144 887.167 524.008 887.615 525.032C888.063 526.035 888.287 527.187 888.287 528.488V528.872ZM880.031 533.224C880.607 533.224 881.151 533.128 881.663 532.936C882.175 532.744 882.623 532.467 883.007 532.104C883.391 531.741 883.689 531.304 883.903 530.792C884.137 530.259 884.255 529.661 884.255 529V528.36C884.255 527.699 884.137 527.112 883.903 526.6C883.689 526.067 883.391 525.619 883.007 525.256C882.623 524.893 882.175 524.616 881.663 524.424C881.151 524.232 880.607 524.136 880.031 524.136C879.455 524.136 878.911 524.232 878.399 524.424C877.887 524.616 877.439 524.893 877.055 525.256C876.671 525.619 876.361 526.067 876.127 526.6C875.913 527.112 875.807 527.699 875.807 528.36V529C875.807 529.661 875.913 530.259 876.127 530.792C876.361 531.304 876.671 531.741 877.055 532.104C877.439 532.467 877.887 532.744 878.399 532.936C878.911 533.128 879.455 533.224 880.031 533.224Z" fill="#0C0F1A"/>
<path d="M892.233 532.776H897.801V518.056H892.424V514.216H901.832V532.776H907.017V536.616H892.233V532.776Z" fill="#0C0F1A"/>
<path d="M912.21 532.776H917.586V524.584H912.594V520.744H921.618V532.776H926.226V536.616H912.21V532.776ZM922.61 516.04C922.61 516.467 922.525 516.872 922.354 517.256C922.205 517.619 921.992 517.939 921.714 518.216C921.437 518.472 921.106 518.685 920.722 518.856C920.36 519.005 919.976 519.08 919.57 519.08C919.144 519.08 918.749 519.005 918.386 518.856C918.024 518.685 917.704 518.472 917.426 518.216C917.149 517.939 916.925 517.619 916.754 517.256C916.605 516.872 916.53 516.467 916.53 516.04C916.53 515.613 916.605 515.219 916.754 514.856C916.925 514.472 917.149 514.152 917.426 513.896C917.704 513.619 918.024 513.405 918.386 513.256C918.749 513.085 919.144 513 919.57 513C919.976 513 920.36 513.085 920.722 513.256C921.106 513.405 921.437 513.619 921.714 513.896C921.992 514.152 922.205 514.472 922.354 514.856C922.525 515.219 922.61 515.613 922.61 516.04Z" fill="#0C0F1A"/>
<path d="M931.068 520.744H935.772V514.216H939.804V520.744H945.532V524.584H939.804V531.816C939.804 532.456 940.092 532.776 940.668 532.776H944.956V536.616H938.236C937.511 536.616 936.913 536.381 936.444 535.912C935.996 535.443 935.772 534.845 935.772 534.12V524.584H931.068V520.744Z" fill="#0C0F1A"/>
<path d="M951.398 532.776H956.774V524.584H951.782V520.744H960.806V532.776H965.414V536.616H951.398V532.776ZM961.798 516.04C961.798 516.467 961.712 516.872 961.542 517.256C961.392 517.619 961.179 517.939 960.902 518.216C960.624 518.472 960.294 518.685 959.91 518.856C959.547 519.005 959.163 519.08 958.758 519.08C958.331 519.08 957.936 519.005 957.574 518.856C957.211 518.685 956.891 518.472 956.614 518.216C956.336 517.939 956.112 517.619 955.942 517.256C955.792 516.872 955.718 516.467 955.718 516.04C955.718 515.613 955.792 515.219 955.942 514.856C956.112 514.472 956.336 514.152 956.614 513.896C956.891 513.619 957.211 513.405 957.574 513.256C957.936 513.085 958.331 513 958.758 513C959.163 513 959.547 513.085 959.91 513.256C960.294 513.405 960.624 513.619 960.902 513.896C961.179 514.152 961.392 514.472 961.542 514.856C961.712 515.219 961.798 515.613 961.798 516.04Z" fill="#0C0F1A"/>
<path d="M986.191 530.792C985.829 532.669 984.965 534.184 983.599 535.336C982.255 536.488 980.453 537.064 978.191 537.064C977.018 537.064 975.92 536.883 974.896 536.52C973.893 536.157 973.018 535.635 972.272 534.952C971.525 534.269 970.938 533.427 970.512 532.424C970.085 531.421 969.871 530.28 969.871 529V528.616C969.871 527.336 970.085 526.184 970.512 525.16C970.938 524.136 971.525 523.261 972.272 522.536C973.04 521.811 973.925 521.256 974.927 520.872C975.951 520.488 977.039 520.296 978.191 520.296C980.41 520.296 982.202 520.872 983.568 522.024C984.954 523.176 985.829 524.691 986.191 526.568L982.224 527.592C982.096 526.653 981.69 525.843 981.008 525.16C980.325 524.477 979.365 524.136 978.128 524.136C977.552 524.136 977.008 524.243 976.496 524.456C975.984 524.669 975.535 524.979 975.151 525.384C974.767 525.768 974.458 526.248 974.224 526.824C974.01 527.379 973.904 528.008 973.904 528.712V528.904C973.904 529.608 974.01 530.237 974.224 530.792C974.458 531.325 974.767 531.773 975.151 532.136C975.535 532.499 975.984 532.776 976.496 532.968C977.008 533.139 977.552 533.224 978.128 533.224C979.365 533.224 980.304 532.915 980.944 532.296C981.605 531.677 982.032 530.845 982.224 529.8L986.191 530.792Z" fill="#0C0F1A"/>
<path d="M995.353 525.224C995.353 525.736 995.62 526.109 996.153 526.344C996.687 526.557 997.657 526.739 999.065 526.888C1000.69 527.059 1002.01 527.549 1003.03 528.36C1004.06 529.149 1004.57 530.259 1004.57 531.688V531.88C1004.57 533.459 1003.99 534.717 1002.84 535.656C1001.69 536.595 1000.07 537.064 997.977 537.064C996.74 537.064 995.684 536.904 994.809 536.584C993.935 536.264 993.209 535.869 992.633 535.4C992.057 534.909 991.609 534.376 991.289 533.8C990.991 533.203 990.788 532.627 990.681 532.072L994.393 530.856C994.564 531.539 994.916 532.136 995.449 532.648C996.004 533.16 996.847 533.416 997.977 533.416C998.98 533.416 999.663 533.267 1000.03 532.968C1000.41 532.648 1000.6 532.307 1000.6 531.944C1000.6 531.731 1000.55 531.539 1000.44 531.368C1000.36 531.176 1000.19 531.005 999.929 530.856C999.673 530.685 999.321 530.547 998.873 530.44C998.447 530.333 997.903 530.248 997.241 530.184C995.449 530.035 994.02 529.576 992.953 528.808C991.908 528.019 991.385 526.867 991.385 525.352V525.16C991.385 524.371 991.556 523.677 991.897 523.08C992.239 522.483 992.687 521.981 993.241 521.576C993.796 521.149 994.436 520.829 995.161 520.616C995.887 520.403 996.633 520.296 997.401 520.296C998.404 520.296 999.268 520.424 999.993 520.68C1000.74 520.915 1001.37 521.235 1001.88 521.64C1002.39 522.024 1002.81 522.461 1003.13 522.952C1003.45 523.421 1003.69 523.88 1003.87 524.328L1000.22 525.8C1000.03 525.224 999.695 524.776 999.225 524.456C998.756 524.115 998.148 523.944 997.401 523.944C996.719 523.944 996.207 524.072 995.865 524.328C995.524 524.563 995.353 524.861 995.353 525.224Z" fill="#0C0F1A"/>
<path d="M1180 20H20V610H1180V20Z" stroke="#0C0F1A" stroke-width="12"/>
<path d="M120 20H20V120H120V20Z" fill="#0C0F1A"/>
<path d="M52.1172 68.56H88.9172V76.16H52.1172V68.56ZM74.8372 57.28V87.52H66.1972V57.28H74.8372Z" fill="#FFD700"/>
</g>
<defs>
<clipPath id="clip0_2_16">
<rect width="1200" height="630" fill="white"/>
</clipPath>
</defs>
</svg>
